<?xml version="1.0" standalone="no"?>
<!DOCTYPE svg PUBLIC "-//W3C//DTD SVG 20010904//EN"
 "http://www.w3.org/TR/2001/REC-SVG-20010904/DTD/svg10.dtd">
<svg version="1.0" xmlns="http://www.w3.org/2000/svg"
 width="585.000000pt" height="320.000000pt" viewBox="0 0 585.000000 320.000000"
 preserveAspectRatio="xMidYMid meet">
<metadata>
Created by potrace 1.16, written by Peter Selinger 2001-2019
</metadata>
<g transform="translate(0.000000,320.000000) scale(0.100000,-0.100000)"
fill="#000000" stroke="none">
<path d="M2168 1972 c-178 -269 -178 -655 0 -924 21 -33 30 -38 63 -38 22 0
39 2 39 4 0 2 -20 41 -44 87 -56 106 -82 191 -95 313 -22 191 21 399 112 544
15 23 27 44 27 47 0 3 -17 5 -39 5 -33 0 -42 -5 -63 -38z"/>
<path d="M2807 1984 l-47 -24 24 -38 c13 -21 45 -80 70 -130 l46 -92 43 21
c70 36 70 34 36 102 -51 103 -103 187 -114 187 -5 -1 -31 -12 -58 -26z"/>
<path d="M3575 1983 c38 -57 66 -112 86 -169 83 -239 58 -540 -62 -737 l-37
-62 40 -3 c48 -4 52 0 113 123 59 117 75 184 82 330 9 193 -30 354 -116 485
-34 51 -39 55 -80 58 l-44 3 18 -28z"/>
<path d="M934 1978 c3 -13 77 -212 164 -443 l158 -420 42 -3 c23 -2 42 -1 42
1 0 4 -296 796 -322 860 -9 23 -16 27 -50 27 -37 0 -40 -2 -34 -22z"/>
<path d="M4823 1963 c-24 -58 -315 -816 -320 -835 -5 -15 1 -18 35 -18 35 0
41 4 50 28 8 23 314 812 329 850 4 8 -7 12 -36 12 -39 0 -43 -3 -58 -37z"/>
<path d="M3275 1977 c-2 -7 -11 -57 -21 -112 -21 -126 -70 -276 -115 -350 -41
-68 -134 -157 -213 -204 -46 -28 -153 -72 -255 -107 -9 -3 -2 -18 25 -52 21
-26 39 -49 40 -51 6 -7 142 51 216 92 157 87 255 184 322 322 40 83 79 204 96
295 6 36 18 80 27 98 9 17 14 35 11 38 -3 3 -34 14 -68 24 -44 13 -62 15 -65
7z"/>
<path d="M630 1915 l0 -35 125 0 125 0 0 35 0 35 -125 0 -125 0 0 -35z"/>
<path d="M4960 1915 l0 -35 130 0 130 0 0 35 0 35 -130 0 -130 0 0 -35z"/>
<path d="M2518 1920 c-20 -11 -39 -24 -43 -30 -3 -5 24 -70 61 -144 l67 -135
51 26 c28 14 53 27 55 29 4 4 -89 195 -118 242 -24 37 -24 37 -73 12z"/>
<path d="M1344 1056 c-3 -8 -4 -23 -2 -33 3 -17 23 -18 306 -21 l302 -2 0 35
0 35 -300 0 c-253 0 -302 -2 -306 -14z"/>
<path d="M3880 1035 l0 -35 308 2 307 3 0 30 0 30 -307 3 -308 2 0 -35z"/>
</g>
</svg>
